<svg width="30" height="30" viewBox="0 0 30 30" fill="none" xmlns="http://www.w3.org/2000/svg">
<rect width="30" height="30.0002" rx="4" fill="#020202"/>
<path d="M7.9999 10L6.7819 10.813C5.9079 11.395 5.4709 11.686 5.2339 12.13C4.9969 12.575 4.9989 13.097 5.0029 14.14C5.0069 15.398 5.0189 16.678 5.0509 17.974C5.1279 21.049 5.1659 22.586 6.2969 23.716C7.4269 24.846 8.9849 24.886 12.1009 24.964C14.0336 25.0123 15.9672 25.0123 17.8999 24.964C21.0159 24.886 22.5739 24.847 23.7039 23.716C24.8339 22.586 24.8729 21.049 24.9499 17.974C24.9819 16.678 24.9939 15.398 24.9979 14.141C25.0009 13.097 25.0029 12.575 24.7659 12.131C24.5299 11.686 24.0929 11.395 23.2189 10.813L21.9999 10" stroke="#EEEEEE" stroke-width="1.5" stroke-linecap="round" stroke-linejoin="round"/>
<path d="M5 13L11.913 17.148C13.417 18.05 14.169 18.5 15 18.5C15.831 18.5 16.583 18.05 18.087 17.147L25 13" stroke="#EEEEEE" stroke-width="1.5" stroke-linecap="round" stroke-linejoin="round"/>
<path d="M8 15V9C8 7.114 8 6.172 8.586 5.586C9.172 5 10.114 5 12 5H18C19.886 5 20.828 5 21.414 5.586C22 6.172 22 7.114 22 9V15" stroke="#EEEEEE" stroke-width="1.5" stroke-linecap="round" stroke-linejoin="round"/>
<path d="M11 13L12.612 8.39505C12.6553 8.27791 12.7339 8.17705 12.8368 8.10633C12.9398 8.0356 13.0621 7.99848 13.187 8.00005C13.449 8.00005 13.681 8.16005 13.763 8.39505L15.375 13M18 8.00005V13M11.875 11.333H14.5" stroke="#EEEEEE" stroke-width="1.5" stroke-linecap="round" stroke-linejoin="round"/>
</svg>
