<svg width="526" height="526" viewBox="0 0 526 526" fill="none" xmlns="http://www.w3.org/2000/svg">
<path d="M228.147 206.493L215.817 204.438L228.147 206.493ZM299.289 202.672L311.605 200.532L299.289 202.672ZM183.982 13C183.982 6.09644 178.386 0.5 171.482 0.5C164.579 0.5 158.982 6.09644 158.982 13H183.982ZM158.982 62.1071C158.982 69.0107 164.579 74.6071 171.482 74.6071C178.386 74.6071 183.982 69.0107 183.982 62.1071H158.982ZM183.982 463.893C183.982 456.989 178.386 451.393 171.482 451.393C164.579 451.393 158.982 456.989 158.982 463.893H183.982ZM158.982 513C158.982 519.904 164.579 525.5 171.482 525.5C178.386 525.5 183.982 519.904 183.982 513H158.982ZM513 186.214C519.904 186.214 525.5 180.618 525.5 173.714C525.5 166.811 519.904 161.214 513 161.214V186.214ZM463.893 161.214C456.989 161.214 451.393 166.811 451.393 173.714C451.393 180.618 456.989 186.214 463.893 186.214V161.214ZM62.1071 186.214C69.0107 186.214 74.6071 180.618 74.6071 173.714C74.6071 166.811 69.0107 161.214 62.1071 161.214V186.214ZM13 161.214C6.09644 161.214 0.5 166.811 0.5 173.714C0.5 180.618 6.09644 186.214 13 186.214V161.214ZM367.018 13C367.018 6.09644 361.421 0.5 354.518 0.5C347.614 0.5 342.018 6.09644 342.018 13H367.018ZM342.018 62.1071C342.018 69.0107 347.614 74.6071 354.518 74.6071C361.421 74.6071 367.018 69.0107 367.018 62.1071H342.018ZM367.018 463.893C367.018 456.989 361.421 451.393 354.518 451.393C347.614 451.393 342.018 456.989 342.018 463.893H367.018ZM342.018 513C342.018 519.904 347.614 525.5 354.518 525.5C361.421 525.5 367.018 519.904 367.018 513H342.018ZM513 369.25C519.904 369.25 525.5 363.654 525.5 356.75C525.5 349.846 519.904 344.25 513 344.25V369.25ZM463.893 344.25C456.989 344.25 451.393 349.846 451.393 356.75C451.393 363.654 456.989 369.25 463.893 369.25V344.25ZM62.1071 369.25C69.0107 369.25 74.6071 363.654 74.6071 356.75C74.6071 349.846 69.0107 344.25 62.1071 344.25V369.25ZM13 344.25C6.09644 344.25 0.5 349.846 0.5 356.75C0.5 363.654 6.09644 369.25 13 369.25V344.25ZM275.5 13C275.5 6.09644 269.904 0.5 263 0.5C256.096 0.5 250.5 6.09644 250.5 13H275.5ZM250.5 62.1071C250.5 69.0107 256.096 74.6071 263 74.6071C269.904 74.6071 275.5 69.0107 275.5 62.1071H250.5ZM275.5 463.893C275.5 456.989 269.904 451.393 263 451.393C256.096 451.393 250.5 456.989 250.5 463.893H275.5ZM250.5 513C250.5 519.904 256.096 525.5 263 525.5C269.904 525.5 275.5 519.904 275.5 513H250.5ZM513 277.732C519.904 277.732 525.5 272.136 525.5 265.232C525.5 258.328 519.904 252.732 513 252.732V277.732ZM463.893 252.732C456.989 252.732 451.393 258.328 451.393 265.232C451.393 272.136 456.989 277.732 463.893 277.732V252.732ZM62.1071 277.732C69.0107 277.732 74.6071 272.136 74.6071 265.232C74.6071 258.328 69.0107 252.732 62.1071 252.732V277.732ZM13 252.732C6.09644 252.732 0.5 258.328 0.5 265.232C0.5 272.136 6.09644 277.732 13 277.732V252.732ZM113.446 108.089H412.554V83.0893H113.446V108.089ZM417.911 113.446V412.554H442.911V113.446H417.911ZM412.554 417.911H113.446V442.911H412.554V417.911ZM108.089 412.554V113.446H83.0893V412.554H108.089ZM113.446 417.911C110.488 417.911 108.089 415.512 108.089 412.554H83.0893C83.0893 429.319 96.6806 442.911 113.446 442.911V417.911ZM417.911 412.554C417.911 415.512 415.512 417.911 412.554 417.911V442.911C429.319 442.911 442.911 429.319 442.911 412.554H417.911ZM412.554 108.089C415.512 108.089 417.911 110.488 417.911 113.446H442.911C442.911 96.6806 429.319 83.0893 412.554 83.0893V108.089ZM113.446 83.0893C96.6806 83.0893 83.0893 96.6806 83.0893 113.446H108.089C108.089 110.488 110.488 108.089 113.446 108.089V83.0893ZM178.179 230.857H350.054V205.857H178.179V230.857ZM355.411 236.214V316.571H380.411V236.214H355.411ZM350.054 321.929H178.179V346.929H350.054V321.929ZM172.821 316.571V236.214H147.821V316.571H172.821ZM178.179 321.929C175.22 321.929 172.821 319.53 172.821 316.571H147.821C147.821 333.337 161.413 346.929 178.179 346.929V321.929ZM355.411 316.571C355.411 319.53 353.012 321.929 350.054 321.929V346.929C366.819 346.929 380.411 333.337 380.411 316.571H355.411ZM350.054 230.857C353.012 230.857 355.411 233.256 355.411 236.214H380.411C380.411 219.449 366.819 205.857 350.054 205.857V230.857ZM178.179 205.857C161.413 205.857 147.821 219.449 147.821 236.214H172.821C172.821 233.256 175.22 230.857 178.179 230.857V205.857ZM237.383 227.109L240.477 208.548L215.817 204.438L212.724 222.999L237.383 227.109ZM286.974 204.811L290.863 227.193L315.494 222.914L311.605 200.532L286.974 204.811ZM285.321 192.911C281.863 192.911 280.41 190.951 281.092 191.659C281.502 192.085 282.307 193.154 283.298 195.014C284.236 196.774 285.099 198.783 285.781 200.692C286.486 202.666 286.857 204.136 286.974 204.811L311.605 200.532C310.786 195.821 308.422 189 305.361 183.256C303.813 180.353 301.742 177.06 299.096 174.314C296.724 171.851 292.036 167.911 285.321 167.911V192.911ZM240.477 208.548C240.97 205.591 242.586 200.408 244.876 196.222C246.014 194.142 246.985 192.93 247.556 192.394C248.17 191.818 247.322 192.911 245.143 192.911V167.911C238.599 167.911 233.623 171.187 230.457 174.157C227.247 177.166 224.784 180.859 222.943 184.223C219.277 190.926 216.759 198.784 215.817 204.438L240.477 208.548ZM158.982 13V62.1071H183.982V13H158.982ZM158.982 463.893V513H183.982V463.893H158.982ZM513 161.214H463.893V186.214H513V161.214ZM62.1071 161.214H13V186.214H62.1071V161.214ZM342.018 13V62.1071H367.018V13H342.018ZM342.018 463.893V513H367.018V463.893H342.018ZM513 344.25H463.893V369.25H513V344.25ZM62.1071 344.25H13V369.25H62.1071V344.25ZM250.5 13V62.1071H275.5V13H250.5ZM250.5 463.893V513H275.5V463.893H250.5ZM513 252.732H463.893V277.732H513V252.732ZM62.1071 252.732H13V277.732H62.1071V252.732ZM245.143 192.911H285.321V167.911H245.143V192.911Z" fill="black"/>
</svg>
