<svg clip-rule="evenodd" fill-rule="evenodd" height="2048" image-rendering="optimizeQuality" shape-rendering="geometricPrecision" text-rendering="geometricPrecision" viewBox="0 0 2048 2048" width="2048" xmlns="http://www.w3.org/2000/svg"><path d="m0 0h2048v2048h-2048z" fill="#424242"/><g fill="#fffffe"><path d="m288 255.999h1472 32.0008v32.0008 1472 32.0008h-32.0008-1472-32.0008v-32.0008-1472-32.0008zm1440 64.0016h-1408v1408h1408z" fill-rule="nonzero"/><path d="m415.999 383.998h1216 32.0008v32.0008 1216 32.0008h-32.0008-1216-32.0008v-32.0008-1216-32.0008zm1184 64.0016h-1152v1152h1152z" fill-rule="nonzero"/><path d="m415.999 676.883h-127.999v-64.001h127.999z" fill-rule="nonzero"/><path d="m415.999 1376h-127.999v-64h127.999z" fill-rule="nonzero"/><path d="m1024 851.318c48.5977 0 92.5997 19.702 124.449 51.5516 31.8496 31.8496 51.5516 75.8516 51.5516 124.449 0 48.5977-19.702 92.5997-51.5516 124.449-31.8496 31.8496-75.8516 51.5516-124.449 51.5516-48.5977 0-92.5997-19.702-124.449-51.5516-31.8496-31.8496-51.5516-75.8516-51.5516-124.449 0-48.5977 19.702-92.5997 51.5516-124.449 31.8496-31.8496 75.8516-51.5516 124.449-51.5516zm79.1989 96.802c-20.2642-20.2642-48.267-32.8004-79.1989-32.8004s-58.9347 12.5362-79.1989 32.8004-32.8004 48.267-32.8004 79.1989 12.5362 58.9347 32.8004 79.1989 48.267 32.8004 79.1989 32.8004 58.9347-12.5362 79.1989-32.8004 32.8004-48.267 32.8004-79.1989-12.5362-58.9347-32.8004-79.1989z" fill-rule="nonzero"/><path d="m991.999 1171.16c0-17.6728 14.328-32.0008 32.0008-32.0008s32.0008 14.328 32.0008 32.0008v96.3178c0 17.6728-14.328 32.0008-32.0008 32.0008s-32.0008-14.328-32.0008-32.0008z" fill-rule="nonzero"/><path d="m1171.16 1056c-17.6728 0-32.0008-14.328-32.0008-32.0008s14.328-32.0008 32.0008-32.0008h96.3178c17.6728 0 32.0008 14.328 32.0008 32.0008s-14.328 32.0008-32.0008 32.0008z" fill-rule="nonzero"/><path d="m1105.43 1150.68c-12.4949-12.4949-12.4949-32.7555 0-45.2504s32.7555-12.4949 45.2504 0l68.1071 68.1071c12.4949 12.4949 12.4949 32.7555 0 45.2504s-32.7555 12.4949-45.2504 0z" fill-rule="nonzero"/><path d="m897.318 1105.43c12.4949-12.4949 32.7555-12.4949 45.2504 0s12.4949 32.7555 0 45.2504l-68.1071 68.1071c-12.4949 12.4949-32.7555 12.4949-45.2504 0s-12.4949-32.7555 0-45.2504z" fill-rule="nonzero"/><path d="m991.999 780.523c0-17.6728 14.328-32.0008 32.0008-32.0008s32.0008 14.328 32.0008 32.0008v96.3178c0 17.6728-14.328 32.0008-32.0008 32.0008s-32.0008-14.328-32.0008-32.0008z" fill-rule="nonzero"/><path d="m780.523 1056c-17.6728 0-32.0008-14.328-32.0008-32.0008s14.328-32.0008 32.0008-32.0008h96.3178c17.6728 0 32.0008 14.328 32.0008 32.0008s-14.328 32.0008-32.0008 32.0008z" fill-rule="nonzero"/><path d="m829.21 874.461c-12.4949-12.4949-12.4949-32.7555 0-45.2504s32.7555-12.4949 45.2504 0l68.1071 68.1071c12.4949 12.4949 12.4949 32.7555 0 45.2504s-32.7555 12.4949-45.2504 0z" fill-rule="nonzero"/><path d="m1173.54 829.21c12.4949-12.4949 32.7555-12.4949 45.2504 0s12.4949 32.7555 0 45.2504l-68.1071 68.1071c-12.4949 12.4949-32.7555 12.4949-45.2504 0s-12.4949-32.7555 0-45.2504z" fill-rule="nonzero"/><circle cx="1440" cy="981.953" r="66.2197"/><path d="m1408 1036.27c0-17.6728 14.328-32.0008 32.0008-32.0008s32.0008 14.328 32.0008 32.0008v96.0001c0 17.6728-14.328 32.0008-32.0008 32.0008s-32.0008-14.328-32.0008-32.0008z" fill-rule="nonzero"/></g><path d="m0 0h2048v2048h-2048z" fill="none"/></svg>