<svg width="543" height="543" viewBox="0 0 543 543" fill="none" xmlns="http://www.w3.org/2000/svg">
<g clip-path="url(#clip0_4_54)">
<path d="M543 271.5C543 121.555 421.445 0 271.5 0C121.555 0 0 121.555 0 271.5C0 421.445 121.555 543 271.5 543C421.445 543 543 421.445 543 271.5Z" fill="#C64702"/>
<path d="M513.911 271.5C513.911 137.62 405.38 29.0893 271.5 29.0893C137.62 29.0893 29.0893 137.62 29.0893 271.5C29.0893 405.38 137.62 513.911 271.5 513.911C405.38 513.911 513.911 405.38 513.911 271.5Z" stroke="white" stroke-width="10"/>
<path d="M193.929 193.929C209.994 193.929 223.018 180.905 223.018 164.839C223.018 148.774 209.994 135.75 193.929 135.75C177.863 135.75 164.839 148.774 164.839 164.839C164.839 180.905 177.863 193.929 193.929 193.929Z" stroke="white" stroke-width="10" stroke-linecap="round" stroke-linejoin="round"/>
<path d="M193.929 407.25C209.994 407.25 223.018 394.226 223.018 378.161C223.018 362.096 209.994 349.071 193.929 349.071C177.863 349.071 164.839 362.096 164.839 378.161C164.839 394.226 177.863 407.25 193.929 407.25Z" stroke="white" stroke-width="10" stroke-linecap="round" stroke-linejoin="round"/>
<path d="M349.071 407.25C365.136 407.25 378.161 394.226 378.161 378.161C378.161 362.096 365.136 349.071 349.071 349.071C333.006 349.071 319.982 362.096 319.982 378.161C319.982 394.226 333.006 407.25 349.071 407.25Z" stroke="white" stroke-width="10" stroke-linecap="round" stroke-linejoin="round"/>
<path d="M349.071 193.929C365.136 193.929 378.161 180.905 378.161 164.839C378.161 148.774 365.136 135.75 349.071 135.75C333.006 135.75 319.982 148.774 319.982 164.839C319.982 180.905 333.006 193.929 349.071 193.929Z" stroke="white" stroke-width="10" stroke-linecap="round" stroke-linejoin="round"/>
<path d="M183.929 339.375V349.375H203.929V339.375H183.929ZM203.929 203.625V193.625H183.929V203.625H203.929ZM183.929 310.286C183.929 315.809 188.406 320.286 193.929 320.286C199.451 320.286 203.929 315.809 203.929 310.286H183.929ZM290.893 262.107C296.416 262.107 300.893 257.63 300.893 252.107C300.893 246.584 296.416 242.107 290.893 242.107V262.107ZM359.071 203.625V193.625H339.071V203.625H359.071ZM339.071 339.375V349.375H359.071V339.375H339.071ZM203.929 339.375V203.625H183.929V339.375H203.929ZM203.929 310.286C203.929 304.555 206.405 298.765 211.649 292.918C216.945 287.013 224.676 281.526 233.941 276.819C252.577 267.352 275.276 262.107 290.893 262.107V242.107C271.847 242.107 246.064 248.228 224.883 258.988C214.24 264.394 204.229 271.237 196.76 279.564C189.24 287.948 183.929 298.292 183.929 310.286H203.929ZM339.071 203.625V339.375H359.071V203.625H339.071Z" fill="white"/>
</g>
<defs>
<clipPath id="clip0_4_54">
<rect width="543" height="543" fill="white"/>
</clipPath>
</defs>
</svg>
